<mxfile host="app.diagrams.net" modified="2021-01-26T02:27:42.689Z" agent="5.0 (Macintosh; Intel Mac OS X 10_15_5) AppleWebKit/537.36 (KHTML, like Gecko) Chrome/87.0.4280.141 Safari/537.36" etag="cM247FplDF3pf01a-EiC" version="14.2.7" type="github" pages="2">
  <diagram id="tA_iP0HrIMMU3YBAey9k" name="Page-1">
    <mxGraphModel dx="1186" dy="694" grid="1" gridSize="10" guides="1" tooltips="1" connect="1" arrows="1" fold="1" page="1" pageScale="1" pageWidth="827" pageHeight="1169" math="0" shadow="0">
      <root>
        <mxCell id="0" />
        <mxCell id="1" parent="0" />
        <mxCell id="Xg0DpyRKA36V5mLnYA7g-1" value="net" style="rounded=1;whiteSpace=wrap;html=1;dashed=1;align=left;" vertex="1" parent="1">
          <mxGeometry x="144" y="300" width="540" height="260" as="geometry" />
        </mxCell>
        <mxCell id="Xg0DpyRKA36V5mLnYA7g-2" value="base connection" style="rounded=0;whiteSpace=wrap;html=1;" vertex="1" parent="1">
          <mxGeometry x="340" y="310" width="260" height="50" as="geometry" />
        </mxCell>
        <mxCell id="Xg0DpyRKA36V5mLnYA7g-3" value="tls connection" style="rounded=0;whiteSpace=wrap;html=1;" vertex="1" parent="1">
          <mxGeometry x="340" y="370" width="260" height="50" as="geometry" />
        </mxCell>
        <mxCell id="Xg0DpyRKA36V5mLnYA7g-4" value="buffer" style="rounded=0;whiteSpace=wrap;html=1;" vertex="1" parent="1">
          <mxGeometry x="340" y="430" width="260" height="50" as="geometry" />
        </mxCell>
        <mxCell id="Xg0DpyRKA36V5mLnYA7g-5" value="channel" style="rounded=1;whiteSpace=wrap;html=1;dashed=1;align=left;" vertex="1" parent="1">
          <mxGeometry x="140" width="540" height="260" as="geometry" />
        </mxCell>
        <mxCell id="Xg0DpyRKA36V5mLnYA7g-6" value="clink base channel" style="rounded=0;whiteSpace=wrap;html=1;" vertex="1" parent="1">
          <mxGeometry x="340" y="20" width="260" height="50" as="geometry" />
        </mxCell>
        <mxCell id="Xg0DpyRKA36V5mLnYA7g-7" value="main/display ... channel" style="rounded=0;whiteSpace=wrap;html=1;" vertex="1" parent="1">
          <mxGeometry x="340" y="80" width="260" height="50" as="geometry" />
        </mxCell>
        <mxCell id="Xg0DpyRKA36V5mLnYA7g-8" value="marshaller" style="rounded=0;whiteSpace=wrap;html=1;" vertex="1" parent="1">
          <mxGeometry x="340" y="140" width="260" height="50" as="geometry" />
        </mxCell>
        <mxCell id="Xg0DpyRKA36V5mLnYA7g-9" value="message queue" style="rounded=0;whiteSpace=wrap;html=1;" vertex="1" parent="1">
          <mxGeometry x="340" y="200" width="260" height="50" as="geometry" />
        </mxCell>
        <mxCell id="Xg0DpyRKA36V5mLnYA7g-10" value="thread pool" style="rounded=0;whiteSpace=wrap;html=1;" vertex="1" parent="1">
          <mxGeometry x="340" y="490" width="260" height="50" as="geometry" />
        </mxCell>
      </root>
    </mxGraphModel>
  </diagram>
  <diagram id="cCuyXKoYrNe80W_nNknb" name="Page-2">
    <mxGraphModel dx="1186" dy="694" grid="1" gridSize="10" guides="1" tooltips="1" connect="1" arrows="1" fold="1" page="1" pageScale="1" pageWidth="827" pageHeight="1169" math="0" shadow="0">
      <root>
        <mxCell id="LZy4kCylbmESiIgpy_bw-0" />
        <mxCell id="LZy4kCylbmESiIgpy_bw-1" parent="LZy4kCylbmESiIgpy_bw-0" />
        <mxCell id="LZy4kCylbmESiIgpy_bw-15" style="edgeStyle=orthogonalEdgeStyle;rounded=0;orthogonalLoop=1;jettySize=auto;html=1;exitX=0.5;exitY=1;exitDx=0;exitDy=0;" edge="1" parent="LZy4kCylbmESiIgpy_bw-1" source="LZy4kCylbmESiIgpy_bw-3" target="LZy4kCylbmESiIgpy_bw-14">
          <mxGeometry relative="1" as="geometry" />
        </mxCell>
        <mxCell id="LZy4kCylbmESiIgpy_bw-16" value="出让时间片" style="edgeLabel;html=1;align=center;verticalAlign=middle;resizable=0;points=[];" vertex="1" connectable="0" parent="LZy4kCylbmESiIgpy_bw-15">
          <mxGeometry x="-0.0571" y="4" relative="1" as="geometry">
            <mxPoint as="offset" />
          </mxGeometry>
        </mxCell>
        <mxCell id="LZy4kCylbmESiIgpy_bw-3" value="main channel" style="rounded=0;whiteSpace=wrap;html=1;" vertex="1" parent="LZy4kCylbmESiIgpy_bw-1">
          <mxGeometry x="250" y="70" width="176" height="130" as="geometry" />
        </mxCell>
        <mxCell id="LZy4kCylbmESiIgpy_bw-5" style="edgeStyle=orthogonalEdgeStyle;rounded=0;orthogonalLoop=1;jettySize=auto;html=1;" edge="1" parent="LZy4kCylbmESiIgpy_bw-1" source="LZy4kCylbmESiIgpy_bw-4">
          <mxGeometry relative="1" as="geometry">
            <mxPoint x="430" y="120" as="targetPoint" />
            <Array as="points">
              <mxPoint x="640" y="85" />
            </Array>
          </mxGeometry>
        </mxCell>
        <mxCell id="LZy4kCylbmESiIgpy_bw-4" value="写数据" style="rounded=0;whiteSpace=wrap;html=1;" vertex="1" parent="LZy4kCylbmESiIgpy_bw-1">
          <mxGeometry x="490" y="70" width="120" height="30" as="geometry" />
        </mxCell>
        <mxCell id="LZy4kCylbmESiIgpy_bw-8" value="" style="endArrow=classic;html=1;entryX=0;entryY=0.5;entryDx=0;entryDy=0;" edge="1" parent="LZy4kCylbmESiIgpy_bw-1" target="LZy4kCylbmESiIgpy_bw-4">
          <mxGeometry width="50" height="50" relative="1" as="geometry">
            <mxPoint x="430" y="85" as="sourcePoint" />
            <mxPoint x="230" y="30" as="targetPoint" />
          </mxGeometry>
        </mxCell>
        <mxCell id="LZy4kCylbmESiIgpy_bw-11" style="edgeStyle=orthogonalEdgeStyle;rounded=0;orthogonalLoop=1;jettySize=auto;html=1;" edge="1" parent="LZy4kCylbmESiIgpy_bw-1" source="LZy4kCylbmESiIgpy_bw-12">
          <mxGeometry relative="1" as="geometry">
            <mxPoint x="430" y="190" as="targetPoint" />
            <Array as="points">
              <mxPoint x="640" y="155" />
            </Array>
          </mxGeometry>
        </mxCell>
        <mxCell id="LZy4kCylbmESiIgpy_bw-12" value="读数据" style="rounded=0;whiteSpace=wrap;html=1;" vertex="1" parent="LZy4kCylbmESiIgpy_bw-1">
          <mxGeometry x="490" y="140" width="120" height="30" as="geometry" />
        </mxCell>
        <mxCell id="LZy4kCylbmESiIgpy_bw-13" value="" style="endArrow=classic;html=1;entryX=0;entryY=0.5;entryDx=0;entryDy=0;" edge="1" parent="LZy4kCylbmESiIgpy_bw-1" target="LZy4kCylbmESiIgpy_bw-12">
          <mxGeometry width="50" height="50" relative="1" as="geometry">
            <mxPoint x="430" y="155" as="sourcePoint" />
            <mxPoint x="230" y="100" as="targetPoint" />
          </mxGeometry>
        </mxCell>
        <mxCell id="LZy4kCylbmESiIgpy_bw-21" style="edgeStyle=orthogonalEdgeStyle;rounded=0;orthogonalLoop=1;jettySize=auto;html=1;" edge="1" parent="LZy4kCylbmESiIgpy_bw-1" source="LZy4kCylbmESiIgpy_bw-14">
          <mxGeometry relative="1" as="geometry">
            <mxPoint x="338" y="430" as="targetPoint" />
          </mxGeometry>
        </mxCell>
        <mxCell id="LZy4kCylbmESiIgpy_bw-14" value="display channel" style="rounded=0;whiteSpace=wrap;html=1;" vertex="1" parent="LZy4kCylbmESiIgpy_bw-1">
          <mxGeometry x="250" y="270" width="176" height="130" as="geometry" />
        </mxCell>
        <mxCell id="LZy4kCylbmESiIgpy_bw-22" style="edgeStyle=orthogonalEdgeStyle;rounded=0;orthogonalLoop=1;jettySize=auto;html=1;" edge="1" parent="LZy4kCylbmESiIgpy_bw-1">
          <mxGeometry relative="1" as="geometry">
            <mxPoint x="339" y="490" as="targetPoint" />
            <mxPoint x="339" y="460" as="sourcePoint" />
          </mxGeometry>
        </mxCell>
        <mxCell id="LZy4kCylbmESiIgpy_bw-17" value="..." style="text;html=1;align=center;verticalAlign=middle;resizable=0;points=[];autosize=1;" vertex="1" parent="LZy4kCylbmESiIgpy_bw-1">
          <mxGeometry x="323" y="437" width="30" height="20" as="geometry" />
        </mxCell>
        <mxCell id="LZy4kCylbmESiIgpy_bw-19" value="(last channel)" style="rounded=0;whiteSpace=wrap;html=1;" vertex="1" parent="LZy4kCylbmESiIgpy_bw-1">
          <mxGeometry x="250" y="500" width="176" height="130" as="geometry" />
        </mxCell>
        <mxCell id="LZy4kCylbmESiIgpy_bw-20" value="" style="endArrow=classic;html=1;exitX=0;exitY=0.5;exitDx=0;exitDy=0;entryX=0.5;entryY=0;entryDx=0;entryDy=0;" edge="1" parent="LZy4kCylbmESiIgpy_bw-1" source="LZy4kCylbmESiIgpy_bw-19" target="LZy4kCylbmESiIgpy_bw-3">
          <mxGeometry width="50" height="50" relative="1" as="geometry">
            <mxPoint x="140" y="550" as="sourcePoint" />
            <mxPoint x="330" y="30" as="targetPoint" />
            <Array as="points">
              <mxPoint x="190" y="565" />
              <mxPoint x="190" y="30" />
              <mxPoint x="338" y="30" />
            </Array>
          </mxGeometry>
        </mxCell>
      </root>
    </mxGraphModel>
  </diagram>
</mxfile>
